<svg data-v-fde0c5aa="" xmlns="http://www.w3.org/2000/svg" viewBox="0 0 300 300" class="iconLeftSlogan"><!----><defs data-v-fde0c5aa=""><!----></defs><rect data-v-fde0c5aa="" fill="#44158F" x="0" y="0" width="300px" height="300px" class="logo-background-square"></rect><defs data-v-fde0c5aa=""><!----></defs><g data-v-fde0c5aa="" id="1bfd5ad3-309f-4b8c-b60d-c81446bec0ff" fill="#ffffff" transform="matrix(2.223633677413855,0,0,2.223633677413855,104.27894238189349,113.09403271535459)"><path d="M8.31 14.32L8.65 16.13L8.65 16.13Q8.33 16.39 7.91 16.59L7.91 16.59L7.91 16.59Q7.49 16.80 7.03 16.95L7.03 16.95L7.03 16.95Q6.56 17.10 6.08 17.18L6.08 17.18L6.08 17.18Q5.60 17.26 5.16 17.26L5.16 17.26L5.16 17.26Q4.10 17.26 3.26 16.91L3.26 16.91L3.26 16.91Q2.41 16.56 1.83 15.90L1.83 15.90L1.83 15.90Q1.24 15.25 0.93 14.32L0.93 14.32L0.93 14.32Q0.62 13.39 0.62 12.24L0.62 12.24L0.62 12.24Q0.62 11.35 0.79 10.62L0.79 10.62L0.79 10.62Q0.96 9.88 1.28 9.30L1.28 9.30L1.28 9.30Q1.60 8.71 2.04 8.27L2.04 8.27L2.04 8.27Q2.47 7.83 3.00 7.53L3.00 7.53L3.00 7.53Q3.53 7.23 4.13 7.09L4.13 7.09L4.13 7.09Q4.73 6.94 5.37 6.94L5.37 6.94L5.37 6.94Q5.84 6.94 6.25 6.99L6.25 6.99L6.25 6.99Q6.67 7.04 7.06 7.15L7.06 7.15L7.06 7.15Q7.44 7.27 7.81 7.45L7.81 7.45L7.81 7.45Q8.18 7.63 8.54 7.90L8.54 7.90L8.07 9.54L8.07 9.54Q7.41 9.02 6.78 8.80L6.78 8.80L6.78 8.80Q6.15 8.58 5.47 8.58L5.47 8.58L5.47 8.58Q4.85 8.58 4.31 8.80L4.31 8.80L4.31 8.80Q3.78 9.02 3.39 9.45L3.39 9.45L3.39 9.45Q3.00 9.89 2.78 10.54L2.78 10.54L2.78 10.54Q2.56 11.20 2.56 12.07L2.56 12.07L2.56 12.07Q2.56 12.89 2.76 13.55L2.76 13.55L2.76 13.55Q2.95 14.20 3.32 14.65L3.32 14.65L3.32 14.65Q3.68 15.11 4.21 15.35L4.21 15.35L4.21 15.35Q4.74 15.59 5.40 15.59L5.40 15.59L5.40 15.59Q5.78 15.59 6.18 15.50L6.18 15.50L6.18 15.50Q6.58 15.41 6.96 15.24L6.96 15.24L6.96 15.24Q7.33 15.07 7.68 14.84L7.68 14.84L7.68 14.84Q8.03 14.61 8.31 14.32L8.31 14.32ZM12.37 17.09L10.46 17.09L10.46 12.89L10.46 12.89Q10.46 11.87 10.35 11.17L10.35 11.17L10.35 11.17Q10.23 10.47 10.12 10.12L10.12 10.12L12.00 10.12L12.00 10.12Q12.04 10.23 12.08 10.40L12.08 10.40L12.08 10.40Q12.12 10.58 12.15 10.77L12.15 10.77L12.15 10.77Q12.19 10.96 12.22 11.14L12.22 11.14L12.27 11.45L12.27 11.45Q12.52 11.09 12.80 10.82L12.80 10.82L12.80 10.82Q13.08 10.55 13.36 10.36L13.36 10.36L13.36 10.36Q13.64 10.17 13.92 10.08L13.92 10.08L13.92 10.08Q14.19 9.98 14.42 9.98L14.42 9.98L14.42 9.98Q14.90 9.98 15.24 10.19L15.24 10.19L15.24 10.19Q15.58 10.39 15.79 10.74L15.79 10.74L15.79 10.74Q16.01 11.09 16.11 11.56L16.11 11.56L16.11 11.56Q16.20 12.02 16.20 12.54L16.20 12.54L14.68 12.78L14.68 12.78Q14.64 12.32 14.45 12.03L14.45 12.03L14.45 12.03Q14.26 11.75 13.82 11.75L13.82 11.75L13.82 11.75Q13.65 11.75 13.44 11.90L13.44 11.90L13.44 11.90Q13.22 12.05 13.02 12.29L13.02 12.29L13.02 12.29Q12.81 12.53 12.64 12.84L12.64 12.84L12.64 12.84Q12.46 13.15 12.37 13.47L12.37 13.47L12.37 17.09ZM23.17 14.01L18.76 14.01L18.76 14.01Q18.83 14.90 19.26 15.30L19.26 15.30L19.26 15.30Q19.69 15.69 20.47 15.69L20.47 15.69L20.47 15.69Q21.14 15.69 21.78 15.53L21.78 15.53L21.78 15.53Q22.42 15.38 23.06 15.00L23.06 15.00L23.21 16.58L23.21 16.58Q22.84 16.76 22.49 16.89L22.49 16.89L22.49 16.89Q22.13 17.02 21.78 17.10L21.78 17.10L21.78 17.10Q21.43 17.19 21.06 17.22L21.06 17.22L21.06 17.22Q20.69 17.26 20.30 17.26L20.30 17.26L20.30 17.26Q19.62 17.26 19.00 17.03L19.00 17.03L19.00 17.03Q18.38 16.80 17.91 16.35L17.91 16.35L17.91 16.35Q17.44 15.91 17.16 15.24L17.16 15.24L17.16 15.24Q16.88 14.58 16.88 13.71L16.88 13.71L16.88 13.71Q16.88 12.86 17.12 12.17L17.12 12.17L17.12 12.17Q17.36 11.48 17.80 11.00L17.80 11.00L17.80 11.00Q18.25 10.51 18.87 10.24L18.87 10.24L18.87 10.24Q19.50 9.98 20.30 9.98L20.30 9.98L20.30 9.98Q20.87 9.98 21.30 10.12L21.30 10.12L21.30 10.12Q21.74 10.26 22.06 10.50L22.06 10.50L22.06 10.50Q22.37 10.75 22.59 11.08L22.59 11.08L22.59 11.08Q22.80 11.41 22.93 11.80L22.93 11.80L22.93 11.80Q23.06 12.18 23.11 12.61L23.11 12.61L23.11 12.61Q23.17 13.03 23.17 13.45L23.17 13.45L23.17 13.58L23.17 13.58Q23.17 13.65 23.17 13.73L23.17 13.73L23.17 13.73Q23.17 13.82 23.17 13.89L23.17 13.89L23.17 14.01ZM20.20 11.42L20.20 11.42L20.20 11.42Q19.61 11.42 19.26 11.73L19.26 11.73L19.26 11.73Q18.92 12.05 18.80 12.78L18.80 12.78L21.43 12.78L21.43 12.78Q21.43 12.06 21.12 11.74L21.12 11.74L21.12 11.74Q20.81 11.42 20.20 11.42ZM28.40 10.12L30.04 10.12L31.31 15.14L32.38 10.12L34.35 10.12L34.35 10.12Q34.23 10.51 34.14 10.82L34.14 10.82L34.14 10.82Q34.04 11.13 33.96 11.41L33.96 11.41L33.96 11.41Q33.88 11.70 33.80 11.97L33.80 11.97L33.80 11.97Q33.72 12.24 33.63 12.54L33.63 12.54L32.37 17.09L30.39 17.09L29.22 12.34L28.06 17.09L26.08 17.09L24.81 12.54L24.81 12.54Q24.74 12.27 24.66 12.00L24.66 12.00L24.66 12.00Q24.58 11.74 24.50 11.45L24.50 11.45L24.50 11.45Q24.41 11.16 24.32 10.83L24.32 10.83L24.32 10.83Q24.22 10.51 24.10 10.12L24.10 10.12L26.07 10.12L27.14 15.14L28.40 10.12ZM42.08 17.09L37.50 10.21L37.50 17.09L35.62 17.09L35.62 17.09Q35.69 16.68 35.70 15.90L35.70 15.90L35.70 15.90Q35.72 15.13 35.72 14.12L35.72 14.12L35.72 10.08L35.72 10.08Q35.72 9.07 35.70 8.30L35.70 8.30L35.70 8.30Q35.69 7.52 35.62 7.11L35.62 7.11L37.50 7.11L42.08 13.99L42.08 7.11L43.96 7.11L43.96 7.11Q43.92 7.31 43.90 7.62L43.90 7.62L43.90 7.62Q43.88 7.92 43.87 8.30L43.87 8.30L43.87 8.30Q43.86 8.67 43.86 9.13L43.86 9.13L43.86 9.13Q43.85 9.58 43.85 10.08L43.85 10.08L43.85 17.09L42.08 17.09ZM52.06 14.01L47.64 14.01L47.64 14.01Q47.71 14.90 48.14 15.30L48.14 15.30L48.14 15.30Q48.58 15.69 49.35 15.69L49.35 15.69L49.35 15.69Q50.03 15.69 50.66 15.53L50.66 15.53L50.66 15.53Q51.30 15.38 51.95 15.00L51.95 15.00L52.09 16.58L52.09 16.58Q51.72 16.76 51.37 16.89L51.37 16.89L51.37 16.89Q51.02 17.02 50.66 17.10L50.66 17.10L50.66 17.10Q50.31 17.19 49.94 17.22L49.94 17.22L49.94 17.22Q49.57 17.26 49.18 17.26L49.18 17.26L49.18 17.26Q48.50 17.26 47.88 17.03L47.88 17.03L47.88 17.03Q47.26 16.80 46.79 16.35L46.79 16.35L46.79 16.35Q46.32 15.91 46.04 15.24L46.04 15.24L46.04 15.24Q45.77 14.58 45.77 13.71L45.77 13.71L45.77 13.71Q45.77 12.86 46.00 12.17L46.00 12.17L46.00 12.17Q46.24 11.48 46.68 11.00L46.68 11.00L46.68 11.00Q47.13 10.51 47.76 10.24L47.76 10.24L47.76 10.24Q48.38 9.98 49.18 9.98L49.18 9.98L49.18 9.98Q49.75 9.98 50.19 10.12L50.19 10.12L50.19 10.12Q50.62 10.26 50.94 10.50L50.94 10.50L50.94 10.50Q51.26 10.75 51.47 11.08L51.47 11.08L51.47 11.08Q51.69 11.41 51.81 11.80L51.81 11.80L51.81 11.80Q51.94 12.18 51.99 12.61L51.99 12.61L51.99 12.61Q52.05 13.03 52.05 13.45L52.05 13.45L52.05 13.58L52.05 13.58Q52.05 13.65 52.05 13.73L52.05 13.73L52.05 13.73Q52.06 13.82 52.06 13.89L52.06 13.89L52.06 14.01ZM49.08 11.42L49.08 11.42L49.08 11.42Q48.49 11.42 48.14 11.73L48.14 11.73L48.14 11.73Q47.80 12.05 47.68 12.78L47.68 12.78L50.31 12.78L50.31 12.78Q50.31 12.06 50.00 11.74L50.00 11.74L50.00 11.74Q49.69 11.42 49.08 11.42ZM57.29 10.12L58.93 10.12L60.19 15.14L61.26 10.12L63.23 10.12L63.23 10.12Q63.11 10.51 63.02 10.82L63.02 10.82L63.02 10.82Q62.92 11.13 62.84 11.41L62.84 11.41L62.84 11.41Q62.76 11.70 62.68 11.97L62.68 11.97L62.68 11.97Q62.60 12.24 62.51 12.54L62.51 12.54L61.25 17.09L59.27 17.09L58.11 12.34L56.94 17.09L54.96 17.09L53.70 12.54L53.70 12.54Q53.62 12.27 53.54 12.00L53.54 12.00L53.54 12.00Q53.46 11.74 53.38 11.45L53.38 11.45L53.38 11.45Q53.29 11.16 53.20 10.83L53.20 10.83L53.20 10.83Q53.10 10.51 52.98 10.12L52.98 10.12L54.95 10.12L56.02 15.14L57.29 10.12ZM69.66 10.53L69.39 12.16L69.39 12.16Q69.20 12.06 68.95 11.95L68.95 11.95L68.95 11.95Q68.71 11.83 68.42 11.74L68.42 11.74L68.42 11.74Q68.13 11.64 67.81 11.58L67.81 11.58L67.81 11.58Q67.48 11.51 67.13 11.51L67.13 11.51L67.13 11.51Q66.83 11.51 66.63 11.57L66.63 11.57L66.63 11.57Q66.42 11.62 66.30 11.70L66.30 11.70L66.30 11.70Q66.18 11.79 66.12 11.89L66.12 11.89L66.12 11.89Q66.07 12.00 66.07 12.10L66.07 12.10L66.07 12.10Q66.07 12.22 66.11 12.32L66.11 12.32L66.11 12.32Q66.16 12.41 66.30 12.50L66.30 12.50L66.30 12.50Q66.45 12.58 66.72 12.65L66.72 12.65L66.72 12.65Q66.99 12.73 67.44 12.82L67.44 12.82L67.44 12.82Q67.97 12.93 68.44 13.09L68.44 13.09L68.44 13.09Q68.91 13.25 69.27 13.50L69.27 13.50L69.27 13.50Q69.62 13.75 69.83 14.10L69.83 14.10L69.83 14.10Q70.03 14.45 70.03 14.94L70.03 14.94L70.03 14.94Q70.03 15.43 69.80 15.85L69.80 15.85L69.80 15.85Q69.57 16.28 69.17 16.59L69.17 16.59L69.17 16.59Q68.77 16.91 68.23 17.08L68.23 17.08L68.23 17.08Q67.68 17.26 67.06 17.26L67.06 17.26L67.06 17.26Q66.60 17.26 66.18 17.20L66.18 17.20L66.18 17.20Q65.75 17.14 65.37 17.03L65.37 17.03L65.37 17.03Q65.00 16.92 64.69 16.78L64.69 16.78L64.69 16.78Q64.38 16.63 64.16 16.47L64.16 16.47L64.53 14.81L64.53 14.81Q64.78 15.01 65.11 15.18L65.11 15.18L65.11 15.18Q65.43 15.35 65.77 15.48L65.77 15.48L65.77 15.48Q66.11 15.60 66.45 15.66L66.45 15.66L66.45 15.66Q66.79 15.73 67.09 15.73L67.09 15.73L67.09 15.73Q67.33 15.73 67.54 15.68L67.54 15.68L67.54 15.68Q67.74 15.63 67.88 15.54L67.88 15.54L67.88 15.54Q68.02 15.45 68.11 15.34L68.11 15.34L68.11 15.34Q68.19 15.23 68.19 15.11L68.19 15.11L68.19 15.11Q68.19 14.96 68.12 14.83L68.12 14.83L68.12 14.83Q68.05 14.70 67.87 14.58L67.87 14.58L67.87 14.58Q67.70 14.46 67.39 14.36L67.39 14.36L67.39 14.36Q67.07 14.25 66.58 14.14L66.58 14.14L66.58 14.14Q65.85 13.99 65.39 13.78L65.39 13.78L65.39 13.78Q64.93 13.58 64.67 13.32L64.67 13.32L64.67 13.32Q64.42 13.07 64.32 12.78L64.32 12.78L64.32 12.78Q64.22 12.49 64.22 12.17L64.22 12.17L64.22 12.17Q64.22 12.00 64.28 11.77L64.28 11.77L64.28 11.77Q64.34 11.55 64.47 11.30L64.47 11.30L64.47 11.30Q64.61 11.06 64.83 10.82L64.83 10.82L64.83 10.82Q65.05 10.59 65.38 10.40L65.38 10.40L65.38 10.40Q65.71 10.21 66.16 10.10L66.16 10.10L66.16 10.10Q66.61 9.98 67.20 9.98L67.20 9.98L67.20 9.98Q67.61 9.98 67.98 10.03L67.98 10.03L67.98 10.03Q68.34 10.08 68.65 10.15L68.65 10.15L68.65 10.15Q68.95 10.23 69.21 10.33L69.21 10.33L69.21 10.33Q69.46 10.43 69.66 10.53L69.66 10.53Z"></path></g><defs data-v-fde0c5aa=""><!----></defs><g data-v-fde0c5aa="" id="1abcdeb9-e56b-4e54-88ea-802848e7cab5" stroke="none" fill="#14D9D9" transform="matrix(1.6455498522654117,0,0,1.6455498522654117,40,123.67120236375341)"><path d="M9.382 8.675h13.943v13.943L32 31.293V0H.707zM22.618 23.325H8.675V9.382L0 .707V32h31.293z"></path></g><defs data-v-fde0c5aa=""><!----></defs><g data-v-fde0c5aa="" id="c05c5ffb-793c-41c7-9b80-84e4c3b08f94" fill="#ffffff" transform="matrix(0.5838562555851372,0,0,0.5838562555851372,105.49411552023334,159.5297081496021)"><path d="M0.28 3.70L0.28 3.70L0.28 3.70Q0.28 3.47 0.69 3.47L0.69 3.47L3.01 3.47L3.01 3.47Q3.33 3.47 3.75 3.45L3.75 3.45L3.75 3.45Q4.17 3.43 4.41 3.43L4.41 3.43L4.41 3.43Q5.67 3.43 6.57 4.07L6.57 4.07L6.57 4.07Q7.46 4.70 7.46 5.78L7.46 5.78L7.46 5.78Q7.46 6.50 7.19 7.03L7.19 7.03L7.19 7.03Q6.92 7.57 6.59 7.81L6.59 7.81L6.59 7.81Q6.26 8.05 5.99 8.22L5.99 8.22L5.99 8.22Q5.71 8.40 5.71 8.46L5.71 8.46L5.71 8.46Q5.71 8.62 6.89 10.27L6.89 10.27L6.89 10.27Q8.06 11.91 8.50 12.38L8.50 12.38L8.50 12.38Q9.03 13.03 9.79 13.03L9.79 13.03L9.79 13.03Q9.98 13.03 9.98 13.20L9.98 13.20L9.98 13.20Q9.98 13.41 9.81 13.48L9.81 13.48L9.81 13.48Q9.65 13.55 8.95 13.55L8.95 13.55L8.95 13.55Q8.29 13.55 7.74 13.23L7.74 13.23L7.74 13.23Q7.04 12.82 5.38 10.09L5.38 10.09L5.38 10.09Q5.28 9.94 5.24 9.87L5.24 9.87L5.24 9.87Q4.56 8.78 4.20 8.78L4.20 8.78L3.91 8.78L3.05 8.78L3.05 8.78Q2.88 8.78 2.85 8.92L2.85 8.92L2.85 8.92Q2.81 9.06 2.81 9.77L2.81 9.77L2.81 9.77Q2.81 10.44 2.81 10.88L2.81 10.88L2.81 10.88Q2.81 11.31 2.82 11.43L2.82 11.43L2.82 11.43Q2.83 11.55 2.83 11.63L2.83 11.63L2.83 11.63Q2.83 11.70 2.83 11.75L2.83 11.75L2.83 11.75Q2.83 12.32 3.09 12.63L3.09 12.63L3.09 12.63Q3.36 12.95 3.69 13.00L3.69 13.00L3.69 13.00Q4.02 13.05 4.28 13.11L4.28 13.11L4.28 13.11Q4.55 13.17 4.55 13.31L4.55 13.31L4.55 13.31Q4.55 13.54 4.30 13.54L4.30 13.54L4.30 13.54Q4.28 13.54 3.33 13.49L3.33 13.49L3.33 13.49Q2.38 13.44 2.30 13.44L2.30 13.44L2.30 13.44Q1.89 13.44 1.33 13.47L1.33 13.47L1.33 13.47Q0.77 13.50 0.76 13.50L0.76 13.50L0.76 13.50Q0.46 13.50 0.46 13.27L0.46 13.27L0.46 13.27Q0.46 13.12 0.64 13.05L0.64 13.05L0.64 13.05Q0.83 12.99 1.05 12.96L1.05 12.96L1.05 12.96Q1.27 12.94 1.46 12.66L1.46 12.66L1.46 12.66Q1.64 12.38 1.64 11.86L1.64 11.86L1.64 11.86Q1.64 11.49 1.65 9.90L1.65 9.90L1.65 9.90Q1.65 8.30 1.65 7.45L1.65 7.45L1.65 7.45Q1.65 6.58 1.65 5.86L1.65 5.86L1.65 5.86Q1.64 5.14 1.64 5.08L1.64 5.08L1.64 5.08Q1.64 4.56 1.43 4.29L1.43 4.29L1.43 4.29Q1.22 4.02 0.96 3.98L0.96 3.98L0.96 3.98Q0.70 3.95 0.49 3.89L0.49 3.89L0.49 3.89Q0.28 3.84 0.28 3.70ZM2.81 5.54L2.81 5.94L2.81 5.94Q2.81 7.38 2.83 7.72L2.83 7.72L2.83 7.72Q2.84 8.06 2.93 8.12L2.93 8.12L2.93 8.12Q3.14 8.25 3.53 8.25L3.53 8.25L3.67 8.25L4.07 8.25L4.07 8.25Q5.26 8.25 5.78 7.70L5.78 7.70L5.78 7.70Q6.29 7.15 6.29 6.30L6.29 6.30L6.29 6.30Q6.29 5.43 5.61 4.72L5.61 4.72L5.61 4.72Q4.93 4.00 3.56 4.00L3.56 4.00L3.56 4.00Q3.04 4.00 2.93 4.28L2.93 4.28L2.93 4.28Q2.81 4.55 2.81 5.54L2.81 5.54ZM17.33 3.65L17.33 3.65L17.33 3.65Q17.33 3.46 17.72 3.46L17.72 3.46L17.72 3.46Q17.78 3.46 17.91 3.47L17.91 3.47L17.91 3.47Q18.03 3.49 18.10 3.49L18.10 3.49L18.10 3.49Q18.14 3.49 19.42 3.52L19.42 3.52L19.42 3.52Q20.69 3.56 21.52 3.56L21.52 3.56L21.52 3.56Q21.81 3.56 22.97 3.53L22.97 3.53L22.97 3.53Q24.12 3.50 24.32 3.50L24.32 3.50L24.32 3.50Q24.58 3.50 24.58 3.82L24.58 3.82L24.58 3.82Q24.58 3.91 24.50 4.38L24.50 4.38L24.50 4.38Q24.42 4.84 24.42 5.25L24.42 5.25L24.42 5.25Q24.42 5.38 24.35 5.47L24.35 5.47L24.35 5.47Q24.28 5.56 24.19 5.56L24.19 5.56L24.19 5.56Q23.98 5.56 23.98 5.26L23.98 5.26L23.98 5.26Q23.98 4.89 23.74 4.58L23.74 4.58L23.74 4.58Q23.51 4.27 23.16 4.26L23.16 4.26L23.16 4.26Q21.90 4.16 21.22 4.16L21.22 4.16L20.86 4.16L20.86 4.16Q20.13 4.16 20.01 4.26L20.01 4.26L20.01 4.26Q19.89 4.37 19.87 5.01L19.87 5.01L19.87 5.01Q19.81 6.02 19.81 7.35L19.81 7.35L19.81 7.35Q19.81 8.05 20.08 8.06L20.08 8.06L20.43 8.06L21.01 8.06L21.45 8.06L21.45 8.06Q22.29 8.06 22.57 8.01L22.57 8.01L22.57 8.01Q22.85 7.95 23.07 7.80L23.07 7.80L23.07 7.80Q23.34 7.62 23.39 7.28L23.39 7.28L23.39 7.28Q23.44 7.04 23.59 7.04L23.59 7.04L23.59 7.04Q23.72 7.04 23.74 7.08L23.74 7.08L23.74 7.08Q23.77 7.13 23.77 7.27L23.77 7.27L23.77 7.27Q23.77 7.36 23.72 7.91L23.72 7.91L23.72 7.91Q23.66 8.46 23.66 8.74L23.66 8.74L23.66 8.74Q23.66 9.00 23.68 9.24L23.68 9.24L23.68 9.24Q23.70 9.48 23.70 9.59L23.70 9.59L23.70 9.59Q23.70 9.94 23.60 9.94L23.60 9.94L23.60 9.94Q23.39 9.94 23.30 9.60L23.30 9.60L23.30 9.60Q23.10 9.02 22.95 8.92L22.95 8.92L22.95 8.92Q22.65 8.72 21.60 8.72L21.60 8.72L21.60 8.72Q21.18 8.72 20.92 8.72L20.92 8.72L20.92 8.72Q20.66 8.72 20.59 8.71L20.59 8.71L20.59 8.71Q20.51 8.71 20.46 8.71L20.46 8.71L20.46 8.71Q20.41 8.71 20.37 8.71L20.37 8.71L20.37 8.71Q19.80 8.71 19.80 8.97L19.80 8.97L19.80 8.97Q19.80 9.38 19.78 9.99L19.78 9.99L19.78 9.99Q19.77 10.60 19.77 10.99L19.77 10.99L19.77 11.55L19.77 11.55Q19.77 12.56 20.10 12.66L20.10 12.66L20.10 12.66Q20.45 12.77 20.71 12.77L20.71 12.77L20.71 12.77Q21.76 12.77 22.55 12.67L22.55 12.67L22.55 12.67Q23.34 12.57 23.74 12.42L23.74 12.42L23.74 12.42Q24.14 12.28 24.40 12.10L24.40 12.10L24.40 12.10Q24.67 11.93 24.75 11.78L24.75 11.78L24.75 11.78Q24.82 11.63 24.90 11.54L24.90 11.54L24.90 11.54Q24.98 11.44 25.06 11.44L25.06 11.44L25.06 11.44Q25.23 11.44 25.23 11.68L25.23 11.68L25.23 11.68Q25.23 12.28 24.63 12.89L24.63 12.89L24.63 12.89Q24.02 13.51 23.58 13.51L23.58 13.51L23.58 13.51Q22.57 13.51 21.30 13.44L21.30 13.44L21.30 13.44Q20.03 13.37 19.73 13.37L19.73 13.37L19.73 13.37Q19.33 13.37 18.75 13.43L18.75 13.43L18.75 13.43Q18.16 13.50 17.82 13.50L17.82 13.50L17.82 13.50Q17.53 13.50 17.53 13.36L17.53 13.36L17.53 13.36Q17.53 13.23 17.53 13.19L17.53 13.19L17.53 13.19Q17.53 13.15 17.57 13.12L17.57 13.12L17.57 13.12Q17.61 13.09 17.66 13.08L17.66 13.08L17.66 13.08Q17.71 13.08 17.84 13.03L17.84 13.03L17.84 13.03Q17.98 12.99 18.13 12.92L18.13 12.92L18.13 12.92Q18.47 12.75 18.57 12.26L18.57 12.26L18.57 12.26Q18.68 11.77 18.68 10.21L18.68 10.21L18.68 8.47L18.68 8.47Q18.68 8.09 18.70 7.29L18.70 7.29L18.70 7.29Q18.72 6.50 18.72 6.05L18.72 6.05L18.72 6.05Q18.72 5.67 18.69 4.77L18.69 4.77L18.69 4.77Q18.68 4.37 18.34 4.14L18.34 4.14L18.34 4.14Q18.00 3.92 17.56 3.91L17.56 3.91L17.56 3.91Q17.33 3.91 17.33 3.65ZM32.79 3.64L32.79 3.64L32.79 3.64Q32.79 3.51 32.91 3.49L32.91 3.49L32.91 3.49Q33.03 3.47 33.50 3.47L33.50 3.47L34.72 3.47L34.72 3.47Q35.07 3.47 36.01 3.44L36.01 3.44L36.01 3.44Q36.95 3.42 37.45 3.42L37.45 3.42L37.45 3.42Q38.42 3.42 39.38 3.71L39.38 3.71L39.38 3.71Q40.35 4.00 41.16 4.56L41.16 4.56L41.16 4.56Q41.97 5.11 42.48 6.00L42.48 6.00L42.48 6.00Q42.98 6.89 42.98 7.98L42.98 7.98L42.98 7.98Q42.98 8.96 42.85 9.68L42.85 9.68L42.85 9.68Q42.71 10.40 42.41 10.93L42.41 10.93L42.41 10.93Q42.10 11.45 41.79 11.78L41.79 11.78L41.79 11.78Q41.48 12.11 40.95 12.56L40.95 12.56L40.95 12.56Q40.53 12.89 39.73 13.19L39.73 13.19L39.73 13.19Q38.93 13.48 38.09 13.48L38.09 13.48L38.09 13.48Q38.01 13.48 36.67 13.45L36.67 13.45L36.67 13.45Q35.32 13.41 34.73 13.41L34.73 13.41L34.73 13.41Q34.24 13.41 33.82 13.45L33.82 13.45L33.82 13.45Q33.40 13.48 33.33 13.48L33.33 13.48L33.33 13.48Q33.00 13.48 33.00 13.30L33.00 13.30L33.00 13.30Q33.00 13.19 33.05 13.14L33.05 13.14L33.05 13.14Q33.10 13.09 33.26 13.05L33.26 13.05L33.26 13.05Q33.42 13.01 33.49 12.98L33.49 12.98L33.49 12.98Q33.71 12.88 33.90 12.61L33.90 12.61L33.90 12.61Q34.09 12.33 34.09 12.07L34.09 12.07L34.09 12.07Q34.09 11.28 34.10 10.07L34.10 10.07L34.10 10.07Q34.10 8.85 34.10 8.27L34.10 8.27L34.10 8.27Q34.10 7.77 34.10 6.70L34.10 6.70L34.10 6.70Q34.09 5.63 34.09 4.72L34.09 4.72L34.09 4.72Q34.09 4.48 33.86 4.23L33.86 4.23L33.86 4.23Q33.63 3.99 33.35 3.98L33.35 3.98L33.35 3.98Q33.15 3.96 33.06 3.95L33.06 3.95L33.06 3.95Q32.97 3.93 32.88 3.86L32.88 3.86L32.88 3.86Q32.79 3.78 32.79 3.64ZM35.27 11.47L35.27 11.47L35.27 11.47Q35.27 11.73 35.27 11.90L35.27 11.90L35.27 11.90Q35.28 12.07 35.33 12.21L35.33 12.21L35.33 12.21Q35.38 12.35 35.41 12.40L35.41 12.40L35.41 12.40Q35.43 12.46 35.57 12.53L35.57 12.53L35.57 12.53Q35.71 12.60 35.79 12.62L35.79 12.62L35.79 12.62Q35.87 12.64 36.12 12.71L36.12 12.71L36.12 12.71Q36.37 12.78 36.54 12.82L36.54 12.82L36.54 12.82Q37.03 12.96 37.56 12.96L37.56 12.96L37.84 12.96L37.84 12.96Q38.79 12.96 39.47 12.69L39.47 12.69L39.47 12.69Q40.14 12.42 40.75 11.83L40.75 11.83L40.75 11.83Q41.79 10.84 41.79 8.61L41.79 8.61L41.79 8.61Q41.79 7.49 41.35 6.58L41.35 6.58L41.35 6.58Q40.91 5.67 40.19 5.13L40.19 5.13L40.19 5.13Q39.48 4.59 38.65 4.30L38.65 4.30L38.65 4.30Q37.83 4.02 36.99 4.02L36.99 4.02L36.99 4.02Q36.61 4.02 36.43 4.02L36.43 4.02L36.43 4.02Q36.26 4.02 36.03 4.05L36.03 4.05L36.03 4.05Q35.80 4.09 35.72 4.11L35.72 4.11L35.72 4.11Q35.64 4.13 35.53 4.25L35.53 4.25L35.53 4.25Q35.42 4.37 35.40 4.45L35.40 4.45L35.40 4.45Q35.38 4.54 35.34 4.78L35.34 4.78L35.34 4.78Q35.31 5.03 35.31 5.21L35.31 5.21L35.31 5.21Q35.31 5.39 35.31 5.80L35.31 5.80L35.31 5.80Q35.31 6.10 35.29 7.24L35.29 7.24L35.29 7.24Q35.28 8.39 35.28 8.48L35.28 8.48L35.28 8.48Q35.28 9.32 35.27 10.30L35.27 10.30L35.27 10.30Q35.27 11.28 35.27 11.47ZM50.88 3.71L50.88 3.71L50.88 3.71Q50.88 3.50 51.27 3.50L51.27 3.50L51.27 3.50Q51.41 3.50 51.91 3.53L51.91 3.53L51.91 3.53Q52.42 3.56 52.85 3.56L52.85 3.56L52.85 3.56Q53.12 3.56 53.36 3.54L53.36 3.54L53.36 3.54Q53.61 3.53 54.08 3.53L54.08 3.53L54.08 3.53Q54.46 3.53 54.46 3.72L54.46 3.72L54.46 3.72Q54.46 3.84 53.82 4.10L53.82 4.10L53.82 4.10Q53.37 4.28 53.37 5.71L53.37 5.71L53.37 5.71Q53.37 7.60 53.35 9.05L53.35 9.05L53.35 9.05Q53.33 10.50 53.33 10.89L53.33 10.89L53.33 10.89Q53.33 12.07 53.68 12.59L53.68 12.59L53.68 12.59Q53.98 13.02 54.35 13.02L54.35 13.02L54.35 13.02Q54.38 13.02 54.49 13.03L54.49 13.03L54.49 13.03Q54.60 13.03 54.63 13.03L54.63 13.03L54.63 13.03Q54.73 13.03 54.82 13.08L54.82 13.08L54.82 13.08Q54.92 13.13 54.92 13.19L54.92 13.19L54.92 13.19Q54.92 13.34 54.84 13.39L54.84 13.39L54.84 13.39Q54.77 13.44 54.57 13.44L54.57 13.44L54.57 13.44Q54.15 13.44 53.79 13.41L53.79 13.41L53.79 13.41Q53.44 13.38 53.24 13.38L53.24 13.38L53.24 13.38Q52.85 13.38 52.39 13.42L52.39 13.42L52.39 13.42Q51.93 13.45 51.70 13.45L51.70 13.45L51.70 13.45Q51.07 13.45 51.07 13.24L51.07 13.24L51.07 13.24Q51.07 13.12 51.20 13.07L51.20 13.07L51.20 13.07Q51.34 13.02 51.51 13.00L51.51 13.00L51.51 13.00Q51.67 12.98 51.86 12.82L51.86 12.82L51.86 12.82Q52.04 12.66 52.11 12.35L52.11 12.35L52.11 12.35Q52.14 12.25 52.20 10.76L52.20 10.76L52.20 10.76Q52.26 9.27 52.26 8.61L52.26 8.61L52.26 7.81L52.26 7.81Q52.26 7.63 52.27 7.12L52.27 7.12L52.27 7.12Q52.28 6.61 52.28 6.30L52.28 6.30L52.28 5.66L52.28 5.66Q52.28 5.04 52.22 4.63L52.22 4.63L52.22 4.63Q52.18 4.30 51.85 4.12L51.85 4.12L51.85 4.12Q51.52 3.93 51.17 3.92L51.17 3.92L51.17 3.92Q50.88 3.91 50.88 3.71ZM62.47 3.68L62.47 3.68L62.47 3.68Q62.47 3.64 62.49 3.60L62.49 3.60L62.49 3.60Q62.51 3.56 62.60 3.50L62.60 3.50L62.60 3.50Q62.69 3.44 62.83 3.44L62.83 3.44L63.21 3.44L63.21 3.44Q63.55 3.44 64.30 3.49L64.30 3.49L64.30 3.49Q65.04 3.53 66.25 3.53L66.25 3.53L66.25 3.53Q67.24 3.53 68.01 3.49L68.01 3.49L68.01 3.49Q68.78 3.46 69.43 3.46L69.43 3.46L69.43 3.46Q69.66 3.46 69.66 3.79L69.66 3.79L69.66 3.79Q69.66 3.92 69.64 4.11L69.64 4.11L69.64 4.11Q69.61 4.30 69.55 4.61L69.55 4.61L69.55 4.61Q69.50 4.93 69.47 5.22L69.47 5.22L69.47 5.22Q69.44 5.50 69.26 5.50L69.26 5.50L69.26 5.50Q69.06 5.50 69.06 5.22L69.06 5.22L69.06 5.22Q69.06 4.30 68.42 4.26L68.42 4.26L68.42 4.26Q66.30 4.09 65.90 4.09L65.90 4.09L65.90 4.09Q65.27 4.09 65.12 4.24L65.12 4.24L65.12 4.24Q64.97 4.40 64.96 4.87L64.96 4.87L64.96 4.87Q64.96 4.94 64.96 4.98L64.96 4.98L64.96 4.98Q64.92 5.74 64.92 7.32L64.92 7.32L64.92 7.32Q64.92 8.01 65.17 8.02L65.17 8.02L65.17 8.02Q65.24 8.02 65.36 8.03L65.36 8.03L65.36 8.03Q65.48 8.04 65.52 8.04L65.52 8.04L65.52 8.04Q65.62 8.04 65.81 8.03L65.81 8.03L65.81 8.03Q66.01 8.02 66.12 8.02L66.12 8.02L66.56 8.02L66.56 8.02Q67.40 8.02 67.67 7.97L67.67 7.97L67.67 7.97Q67.94 7.92 68.17 7.77L68.17 7.77L68.17 7.77Q68.29 7.69 68.36 7.57L68.36 7.57L68.36 7.57Q68.43 7.46 68.46 7.31L68.46 7.31L68.46 7.31Q68.49 7.15 68.53 7.08L68.53 7.08L68.53 7.08Q68.57 7.01 68.70 7.01L68.70 7.01L68.70 7.01Q68.82 7.01 68.85 7.06L68.85 7.06L68.85 7.06Q68.88 7.10 68.88 7.24L68.88 7.24L68.88 7.24Q68.88 7.34 68.82 7.73L68.82 7.73L68.82 7.73Q68.75 8.12 68.75 8.40L68.75 8.40L68.75 8.40Q68.75 8.67 68.80 9.05L68.80 9.05L68.80 9.05Q68.85 9.44 68.85 9.55L68.85 9.55L68.85 9.55Q68.85 9.77 68.80 9.83L68.80 9.83L68.80 9.83Q68.75 9.90 68.66 9.90L68.66 9.90L68.66 9.90Q68.42 9.90 68.36 9.55L68.36 9.55L68.36 9.55Q68.36 9.52 68.35 9.42L68.35 9.42L68.35 9.42Q68.33 9.32 68.33 9.28L68.33 9.28L68.33 9.28Q68.32 9.24 68.29 9.16L68.29 9.16L68.29 9.16Q68.26 9.09 68.24 9.04L68.24 9.04L68.24 9.04Q68.21 9.00 68.17 8.95L68.17 8.95L68.17 8.95Q68.12 8.90 68.05 8.88L68.05 8.88L68.05 8.88Q67.86 8.79 67.35 8.74L67.35 8.74L67.35 8.74Q66.85 8.68 66.70 8.68L66.70 8.68L65.48 8.68L65.48 8.68Q64.90 8.68 64.90 8.95L64.90 8.95L64.90 8.95Q64.90 9.35 64.89 9.96L64.89 9.96L64.89 9.96Q64.88 10.57 64.88 10.96L64.88 10.96L64.88 10.96Q64.88 11.06 64.87 11.25L64.87 11.25L64.87 11.25Q64.86 11.44 64.86 11.52L64.86 11.52L64.86 11.52Q64.86 11.80 64.92 12.08L64.92 12.08L64.92 12.08Q64.97 12.36 65.25 12.67L65.25 12.67L65.25 12.67Q65.52 12.98 65.98 12.98L65.98 12.98L65.98 12.98Q66.40 12.98 66.40 13.23L66.40 13.23L66.40 13.23Q66.40 13.27 66.37 13.33L66.37 13.33L66.37 13.33Q66.35 13.38 66.24 13.44L66.24 13.44L66.24 13.44Q66.14 13.50 65.97 13.50L65.97 13.50L65.97 13.50Q65.74 13.50 65.26 13.44L65.26 13.44L65.26 13.44Q64.78 13.38 64.61 13.38L64.61 13.38L64.61 13.38Q64.22 13.38 63.73 13.43L63.73 13.43L63.73 13.43Q63.25 13.47 62.92 13.47L62.92 13.47L62.92 13.47Q62.64 13.47 62.64 13.31L62.64 13.31L62.64 13.31Q62.64 13.13 62.70 13.09L62.70 13.09L62.70 13.09Q62.76 13.05 63.24 12.88L63.24 12.88L63.24 12.88Q63.60 12.75 63.69 12.13L63.69 12.13L63.69 12.13Q63.77 11.51 63.78 9.60L63.78 9.60L63.78 9.60Q63.78 8.86 63.78 8.44L63.78 8.44L63.78 8.44Q63.78 8.06 63.80 7.26L63.80 7.26L63.80 7.26Q63.83 6.45 63.83 6.01L63.83 6.01L63.83 5.19L63.83 5.19Q63.83 4.27 63.17 3.96L63.17 3.96L63.17 3.96Q63.07 3.92 62.93 3.90L62.93 3.90L62.93 3.90Q62.79 3.88 62.70 3.88L62.70 3.88L62.70 3.88Q62.61 3.88 62.54 3.83L62.54 3.83L62.54 3.83Q62.47 3.78 62.47 3.68ZM77.22 3.71L77.22 3.71L77.22 3.71Q77.22 3.50 77.62 3.50L77.62 3.50L77.62 3.50Q77.76 3.50 78.26 3.53L78.26 3.53L78.26 3.53Q78.76 3.56 79.20 3.56L79.20 3.56L79.20 3.56Q79.46 3.56 79.71 3.54L79.71 3.54L79.71 3.54Q79.95 3.53 80.43 3.53L80.43 3.53L80.43 3.53Q80.81 3.53 80.81 3.72L80.81 3.72L80.81 3.72Q80.81 3.84 80.16 4.10L80.16 4.10L80.16 4.10Q79.72 4.28 79.72 5.71L79.72 5.71L79.72 5.71Q79.72 7.60 79.69 9.05L79.69 9.05L79.69 9.05Q79.67 10.50 79.67 10.89L79.67 10.89L79.67 10.89Q79.67 12.07 80.02 12.59L80.02 12.59L80.02 12.59Q80.33 13.02 80.70 13.02L80.70 13.02L80.70 13.02Q80.72 13.02 80.84 13.03L80.84 13.03L80.84 13.03Q80.95 13.03 80.98 13.03L80.98 13.03L80.98 13.03Q81.07 13.03 81.17 13.08L81.17 13.08L81.17 13.08Q81.27 13.13 81.27 13.19L81.27 13.19L81.27 13.19Q81.27 13.34 81.19 13.39L81.19 13.39L81.19 13.39Q81.12 13.44 80.92 13.44L80.92 13.44L80.92 13.44Q80.50 13.44 80.14 13.41L80.14 13.41L80.14 13.41Q79.79 13.38 79.59 13.38L79.59 13.38L79.59 13.38Q79.20 13.38 78.74 13.42L78.74 13.42L78.74 13.42Q78.27 13.45 78.05 13.45L78.05 13.45L78.05 13.45Q77.42 13.45 77.42 13.24L77.42 13.24L77.42 13.24Q77.42 13.12 77.55 13.07L77.55 13.07L77.55 13.07Q77.69 13.02 77.85 13.00L77.85 13.00L77.85 13.00Q78.02 12.98 78.20 12.82L78.20 12.82L78.20 12.82Q78.39 12.66 78.46 12.35L78.46 12.35L78.46 12.35Q78.48 12.25 78.55 10.76L78.55 10.76L78.55 10.76Q78.61 9.27 78.61 8.61L78.61 8.61L78.61 7.81L78.61 7.81Q78.61 7.63 78.62 7.12L78.62 7.12L78.62 7.12Q78.62 6.61 78.62 6.30L78.62 6.30L78.62 5.66L78.62 5.66Q78.62 5.04 78.57 4.63L78.57 4.63L78.57 4.63Q78.53 4.30 78.20 4.12L78.20 4.12L78.20 4.12Q77.87 3.93 77.52 3.92L77.52 3.92L77.52 3.92Q77.22 3.91 77.22 3.71ZM88.82 3.77L88.82 3.77L88.82 3.77Q88.82 3.68 88.91 3.60L88.91 3.60L88.91 3.60Q89.01 3.53 89.17 3.53L89.17 3.53L89.17 3.53Q89.25 3.53 89.45 3.54L89.45 3.54L89.45 3.54Q89.64 3.54 89.70 3.54L89.70 3.54L89.70 3.54Q89.91 3.54 90.09 3.53L90.09 3.53L90.09 3.53Q90.27 3.51 90.38 3.51L90.38 3.51L90.38 3.51Q90.51 3.51 90.68 3.59L90.68 3.59L90.68 3.59Q90.85 3.67 90.87 3.75L90.87 3.75L90.87 3.75Q90.90 3.79 91.03 3.94L91.03 3.94L91.03 3.94Q91.15 4.09 91.36 4.33L91.36 4.33L91.36 4.33Q91.57 4.56 91.74 4.79L91.74 4.79L91.74 4.79Q93.65 7.27 96.84 10.77L96.84 10.77L96.84 10.77Q96.92 10.86 97.04 10.99L97.04 10.99L97.04 10.99Q97.16 11.12 97.21 11.18L97.21 11.18L97.21 11.18Q97.26 11.24 97.31 11.30L97.31 11.30L97.31 11.30Q97.37 11.35 97.40 11.38L97.40 11.38L97.40 11.38Q97.44 11.40 97.47 11.40L97.47 11.40L97.47 11.40Q97.61 11.40 97.61 10.53L97.61 10.53L97.61 8.89L97.61 8.89Q97.61 7.95 97.60 7.31L97.60 7.31L97.60 7.31Q97.59 6.66 97.59 6.38L97.59 6.38L97.59 6.38Q97.58 6.09 97.58 6.02L97.58 6.02L97.58 5.92L97.58 5.92Q97.58 5.45 97.52 5.11L97.52 5.11L97.52 5.11Q97.45 4.77 97.37 4.59L97.37 4.59L97.37 4.59Q97.29 4.41 97.12 4.28L97.12 4.28L97.12 4.28Q96.96 4.16 96.85 4.12L96.85 4.12L96.85 4.12Q96.74 4.09 96.53 4.05L96.53 4.05L96.53 4.05Q96.32 4.00 96.24 3.98L96.24 3.98L96.24 3.98Q95.96 3.89 95.96 3.74L95.96 3.74L95.96 3.74Q95.96 3.53 96.22 3.53L96.22 3.53L96.22 3.53Q96.31 3.53 96.89 3.54L96.89 3.54L96.89 3.54Q97.48 3.54 97.55 3.54L97.55 3.54L97.55 3.54Q97.89 3.54 98.30 3.53L98.30 3.53L98.30 3.53Q98.71 3.51 98.81 3.51L98.81 3.51L98.81 3.51Q99.05 3.51 99.14 3.56L99.14 3.56L99.14 3.56Q99.23 3.61 99.23 3.75L99.23 3.75L99.23 3.75Q99.23 3.81 99.15 3.86L99.15 3.86L99.15 3.86Q99.08 3.91 98.99 3.94L98.99 3.94L98.99 3.94Q98.91 3.98 98.83 4.00L98.83 4.00L98.74 4.03L98.74 4.03Q98.28 4.28 98.28 5.61L98.28 5.61L98.28 6.15L98.28 6.15Q98.28 7.21 98.20 9.83L98.20 9.83L98.20 9.83Q98.13 12.46 98.13 13.08L98.13 13.08L98.13 13.36L98.13 13.36Q98.13 13.68 97.93 13.68L97.93 13.68L97.93 13.68Q97.80 13.68 97.71 13.58L97.71 13.58L97.71 13.58Q93.06 8.19 92.15 7.17L92.15 7.17L92.15 7.17Q91.25 6.16 91.15 6.16L91.15 6.16L91.15 6.16Q91.01 6.16 91.01 7.11L91.01 7.11L91.01 7.11Q91.01 8.44 90.96 9.97L90.96 9.97L90.96 9.97Q90.90 11.51 90.90 11.65L90.90 11.65L90.90 11.65Q90.90 12.28 91.12 12.61L91.12 12.61L91.12 12.61Q91.34 12.94 91.59 12.98L91.59 12.98L91.59 12.98Q91.84 13.02 92.06 13.07L92.06 13.07L92.06 13.07Q92.27 13.12 92.27 13.26L92.27 13.26L92.27 13.26Q92.27 13.41 92.22 13.45L92.22 13.45L92.22 13.45Q92.18 13.50 92.05 13.50L92.05 13.50L92.05 13.50Q91.95 13.50 91.61 13.48L91.61 13.48L91.61 13.48Q91.27 13.47 90.55 13.47L90.55 13.47L90.55 13.47Q90.43 13.47 90.03 13.48L90.03 13.48L90.03 13.48Q89.64 13.50 89.36 13.50L89.36 13.50L89.36 13.50Q89.05 13.50 89.05 13.27L89.05 13.27L89.05 13.27Q89.05 13.15 89.24 13.11L89.24 13.11L89.24 13.11Q89.42 13.08 89.68 12.89L89.68 12.89L89.68 12.89Q89.95 12.71 90.09 12.21L90.09 12.21L90.09 12.21Q90.17 11.89 90.30 9.60L90.30 9.60L90.30 9.60Q90.43 7.32 90.43 6.45L90.43 6.45L90.43 6.45Q90.43 5.25 90.09 4.65L90.09 4.65L90.09 4.65Q89.75 4.06 89.00 3.98L89.00 3.98L89.00 3.98Q88.82 3.96 88.82 3.77ZM106.99 3.71L106.99 3.71L106.99 3.71Q106.99 3.50 107.38 3.50L107.38 3.50L107.38 3.50Q107.52 3.50 108.02 3.53L108.02 3.53L108.02 3.53Q108.53 3.56 108.96 3.56L108.96 3.56L108.96 3.56Q109.23 3.56 109.47 3.54L109.47 3.54L109.47 3.54Q109.72 3.53 110.19 3.53L110.19 3.53L110.19 3.53Q110.57 3.53 110.57 3.72L110.57 3.72L110.57 3.72Q110.57 3.84 109.93 4.10L109.93 4.10L109.93 4.10Q109.48 4.28 109.48 5.71L109.48 5.71L109.48 5.71Q109.48 7.60 109.46 9.05L109.46 9.05L109.46 9.05Q109.44 10.50 109.44 10.89L109.44 10.89L109.44 10.89Q109.44 12.07 109.79 12.59L109.79 12.59L109.79 12.59Q110.10 13.02 110.46 13.02L110.46 13.02L110.46 13.02Q110.49 13.02 110.60 13.03L110.60 13.03L110.60 13.03Q110.71 13.03 110.74 13.03L110.74 13.03L110.74 13.03Q110.84 13.03 110.94 13.08L110.94 13.08L110.94 13.08Q111.03 13.13 111.03 13.19L111.03 13.19L111.03 13.19Q111.03 13.34 110.96 13.39L110.96 13.39L110.96 13.39Q110.88 13.44 110.68 13.44L110.68 13.44L110.68 13.44Q110.26 13.44 109.91 13.41L109.91 13.41L109.91 13.41Q109.55 13.38 109.35 13.38L109.35 13.38L109.35 13.38Q108.96 13.38 108.50 13.42L108.50 13.42L108.50 13.42Q108.04 13.45 107.81 13.45L107.81 13.45L107.81 13.45Q107.18 13.45 107.18 13.24L107.18 13.24L107.18 13.24Q107.18 13.12 107.32 13.07L107.32 13.07L107.32 13.07Q107.45 13.02 107.62 13.00L107.62 13.00L107.62 13.00Q107.79 12.98 107.97 12.82L107.97 12.82L107.97 12.82Q108.15 12.66 108.22 12.35L108.22 12.35L108.22 12.35Q108.25 12.25 108.31 10.76L108.31 10.76L108.31 10.76Q108.37 9.27 108.37 8.61L108.37 8.61L108.37 7.81L108.37 7.81Q108.37 7.63 108.38 7.12L108.38 7.12L108.38 7.12Q108.39 6.61 108.39 6.30L108.39 6.30L108.39 5.66L108.39 5.66Q108.39 5.04 108.33 4.63L108.33 4.63L108.33 4.63Q108.29 4.30 107.96 4.12L107.96 4.12L107.96 4.12Q107.63 3.93 107.28 3.92L107.28 3.92L107.28 3.92Q106.99 3.91 106.99 3.71ZM118.58 3.77L118.58 3.77L118.58 3.77Q118.58 3.68 118.68 3.60L118.68 3.60L118.68 3.60Q118.78 3.53 118.93 3.53L118.93 3.53L118.93 3.53Q119.01 3.53 119.21 3.54L119.21 3.54L119.21 3.54Q119.41 3.54 119.46 3.54L119.46 3.54L119.46 3.54Q119.67 3.54 119.85 3.53L119.85 3.53L119.85 3.53Q120.04 3.51 120.15 3.51L120.15 3.51L120.15 3.51Q120.27 3.51 120.44 3.59L120.44 3.59L120.44 3.59Q120.61 3.67 120.64 3.75L120.64 3.75L120.64 3.75Q120.67 3.79 120.79 3.94L120.79 3.94L120.79 3.94Q120.92 4.09 121.13 4.33L121.13 4.33L121.13 4.33Q121.34 4.56 121.51 4.79L121.51 4.79L121.51 4.79Q123.41 7.27 126.60 10.77L126.60 10.77L126.60 10.77Q126.69 10.86 126.80 10.99L126.80 10.99L126.80 10.99Q126.92 11.12 126.97 11.18L126.97 11.18L126.97 11.18Q127.02 11.24 127.08 11.30L127.08 11.30L127.08 11.30Q127.13 11.35 127.17 11.38L127.17 11.38L127.17 11.38Q127.20 11.40 127.23 11.40L127.23 11.40L127.23 11.40Q127.37 11.40 127.37 10.53L127.37 10.53L127.37 8.89L127.37 8.89Q127.37 7.95 127.36 7.31L127.36 7.31L127.36 7.31Q127.36 6.66 127.35 6.38L127.35 6.38L127.35 6.38Q127.34 6.09 127.34 6.02L127.34 6.02L127.34 5.92L127.34 5.92Q127.34 5.45 127.28 5.11L127.28 5.11L127.28 5.11Q127.22 4.77 127.13 4.59L127.13 4.59L127.13 4.59Q127.05 4.41 126.89 4.28L126.89 4.28L126.89 4.28Q126.73 4.16 126.62 4.12L126.62 4.12L126.62 4.12Q126.50 4.09 126.29 4.05L126.29 4.05L126.29 4.05Q126.08 4.00 126.00 3.98L126.00 3.98L126.00 3.98Q125.72 3.89 125.72 3.74L125.72 3.74L125.72 3.74Q125.72 3.53 125.99 3.53L125.99 3.53L125.99 3.53Q126.07 3.53 126.66 3.54L126.66 3.54L126.66 3.54Q127.25 3.54 127.32 3.54L127.32 3.54L127.32 3.54Q127.65 3.54 128.06 3.53L128.06 3.53L128.06 3.53Q128.48 3.51 128.58 3.51L128.58 3.51L128.58 3.51Q128.81 3.51 128.90 3.56L128.90 3.56L128.90 3.56Q129.00 3.61 129.00 3.75L129.00 3.75L129.00 3.75Q129.00 3.81 128.92 3.86L128.92 3.86L128.92 3.86Q128.84 3.91 128.76 3.94L128.76 3.94L128.76 3.94Q128.67 3.98 128.59 4.00L128.59 4.00L128.51 4.03L128.51 4.03Q128.04 4.28 128.04 5.61L128.04 5.61L128.04 6.15L128.04 6.15Q128.04 7.21 127.97 9.83L127.97 9.83L127.97 9.83Q127.89 12.46 127.89 13.08L127.89 13.08L127.89 13.36L127.89 13.36Q127.89 13.68 127.69 13.68L127.69 13.68L127.69 13.68Q127.57 13.68 127.47 13.58L127.47 13.58L127.47 13.58Q122.82 8.19 121.92 7.17L121.92 7.17L121.92 7.17Q121.02 6.16 120.92 6.16L120.92 6.16L120.92 6.16Q120.78 6.16 120.78 7.11L120.78 7.11L120.78 7.11Q120.78 8.44 120.72 9.97L120.72 9.97L120.72 9.97Q120.67 11.51 120.67 11.65L120.67 11.65L120.67 11.65Q120.67 12.28 120.88 12.61L120.88 12.61L120.88 12.61Q121.10 12.94 121.35 12.98L121.35 12.98L121.35 12.98Q121.60 13.02 121.82 13.07L121.82 13.07L121.82 13.07Q122.04 13.12 122.04 13.26L122.04 13.26L122.04 13.26Q122.04 13.41 121.99 13.45L121.99 13.45L121.99 13.45Q121.94 13.50 121.81 13.50L121.81 13.50L121.81 13.50Q121.72 13.50 121.37 13.48L121.37 13.48L121.37 13.48Q121.03 13.47 120.32 13.47L120.32 13.47L120.32 13.47Q120.19 13.47 119.80 13.48L119.80 13.48L119.80 13.48Q119.41 13.50 119.13 13.50L119.13 13.50L119.13 13.50Q118.82 13.50 118.82 13.27L118.82 13.27L118.82 13.27Q118.82 13.15 119.00 13.11L119.00 13.11L119.00 13.11Q119.18 13.08 119.45 12.89L119.45 12.89L119.45 12.89Q119.71 12.71 119.85 12.21L119.85 12.21L119.85 12.21Q119.94 11.89 120.06 9.60L120.06 9.60L120.06 9.60Q120.19 7.32 120.19 6.45L120.19 6.45L120.19 6.45Q120.19 5.25 119.85 4.65L119.85 4.65L119.85 4.65Q119.52 4.06 118.76 3.98L118.76 3.98L118.76 3.98Q118.58 3.96 118.58 3.77ZM137.09 8.83L137.09 8.83L137.09 8.83Q137.09 7.31 137.70 6.09L137.70 6.09L137.70 6.09Q138.31 4.87 139.57 4.12L139.57 4.12L139.57 4.12Q140.83 3.37 142.56 3.37L142.56 3.37L142.56 3.37Q143.23 3.37 143.82 3.48L143.82 3.48L143.82 3.48Q144.41 3.58 144.79 3.72L144.79 3.72L144.79 3.72Q145.17 3.86 145.45 4.01L145.45 4.01L145.45 4.01Q145.73 4.16 145.87 4.26L145.87 4.26L145.87 4.26Q146.02 4.37 146.05 4.37L146.05 4.37L146.05 4.37Q146.09 4.37 146.24 4.26L146.24 4.26L146.24 4.26Q146.38 4.16 146.44 4.16L146.44 4.16L146.44 4.16Q146.65 4.16 146.65 4.44L146.65 4.44L146.65 4.44Q146.66 4.84 146.71 5.29L146.71 5.29L146.71 5.29Q146.76 5.74 146.80 6.03L146.80 6.03L146.80 6.03Q146.85 6.33 146.85 6.38L146.85 6.38L146.85 6.38Q146.85 6.62 146.68 6.62L146.68 6.62L146.68 6.62Q146.51 6.62 146.44 6.45L146.44 6.45L146.44 6.45Q145.95 5.39 144.80 4.65L144.80 4.65L144.80 4.65Q143.65 3.92 142.44 3.92L142.44 3.92L142.44 3.92Q140.69 3.92 139.54 5.02L139.54 5.02L139.54 5.02Q138.40 6.12 138.40 8.06L138.40 8.06L138.40 8.06Q138.40 9.35 138.88 10.49L138.88 10.49L138.88 10.49Q139.36 11.62 140.33 12.36L140.33 12.36L140.33 12.36Q141.30 13.10 142.56 13.10L142.56 13.10L142.56 13.10Q143.64 13.10 144.51 12.61L144.51 12.61L144.51 12.61Q145.39 12.12 145.49 11.49L145.49 11.49L145.49 11.49Q145.53 11.16 145.53 9.73L145.53 9.73L145.53 9.73Q145.53 9.18 145.29 8.95L145.29 8.95L145.29 8.95Q145.12 8.78 144.68 8.72L144.68 8.72L144.68 8.72Q144.26 8.68 144.19 8.55L144.19 8.55L144.19 8.55Q144.16 8.50 144.16 8.41L144.16 8.41L144.16 8.41Q144.16 8.26 144.41 8.26L144.41 8.26L144.41 8.26Q144.59 8.26 145.19 8.29L145.19 8.29L145.19 8.29Q145.80 8.33 145.96 8.33L145.96 8.33L145.96 8.33Q146.24 8.33 146.57 8.32L146.57 8.32L146.57 8.32Q146.89 8.32 147.08 8.32L147.08 8.32L147.29 8.32L147.29 8.32Q147.52 8.32 147.52 8.44L147.52 8.44L147.52 8.44Q147.52 8.54 147.16 8.69L147.16 8.69L147.16 8.69Q146.80 8.85 146.76 9.09L146.76 9.09L146.76 9.09Q146.66 9.69 146.66 10.65L146.66 10.65L146.66 10.65Q146.66 11.07 146.68 11.40L146.68 11.40L146.68 11.40Q146.69 11.72 146.70 11.85L146.70 11.85L146.70 11.85Q146.71 11.98 146.72 12.08L146.72 12.08L146.72 12.08Q146.73 12.18 146.73 12.22L146.73 12.22L146.73 12.22Q146.73 12.29 146.63 12.33L146.63 12.33L146.63 12.33Q146.52 12.36 146.29 12.42L146.29 12.42L146.29 12.42Q146.05 12.49 145.85 12.60L145.85 12.60L145.75 12.66L145.75 12.66Q145.66 12.73 145.56 12.78L145.56 12.78L145.56 12.78Q145.46 12.84 145.30 12.92L145.30 12.92L145.30 12.92Q145.14 13.01 144.97 13.09L144.97 13.09L144.97 13.09Q144.80 13.17 144.59 13.26L144.59 13.26L144.59 13.26Q144.38 13.36 144.16 13.43L144.16 13.43L144.16 13.43Q143.93 13.50 143.70 13.55L143.70 13.55L143.70 13.55Q143.46 13.61 143.20 13.64L143.20 13.64L143.20 13.64Q142.94 13.68 142.69 13.68L142.69 13.68L142.69 13.68Q141.16 13.68 140.03 13.26L140.03 13.26L140.03 13.26Q138.91 12.85 138.29 12.14L138.29 12.14L138.29 12.14Q137.68 11.44 137.38 10.61L137.38 10.61L137.38 10.61Q137.09 9.79 137.09 8.83ZM164.28 15.60L164.28 15.60L164.28 15.60Q164.28 15.39 164.44 15.11L164.44 15.11L164.44 15.11Q164.60 14.83 164.71 14.83L164.71 14.83L164.71 14.83Q164.79 14.83 165.01 15.06L165.01 15.06L165.01 15.06Q165.23 15.30 165.52 15.30L165.52 15.30L165.52 15.30Q166.29 15.30 166.49 14.21L166.49 14.21L166.49 14.21Q166.67 13.26 166.67 12.52L166.67 12.52L166.67 12.52Q166.67 12.36 166.67 11.94L166.67 11.94L166.67 11.94Q166.67 11.52 166.67 11.16L166.67 11.16L166.66 10.79L166.66 10.79Q166.66 10.51 166.65 10.30L166.65 10.30L166.65 10.30Q166.64 10.09 166.63 9.86L166.63 9.86L166.63 9.86Q166.63 9.62 166.62 8.64L166.62 8.64L166.62 8.64Q166.61 7.66 166.61 6.02L166.61 6.02L166.61 6.02Q166.61 5.12 166.56 4.63L166.56 4.63L166.56 4.63Q166.52 4.30 166.19 4.13L166.19 4.13L166.19 4.13Q165.86 3.96 165.49 3.95L165.49 3.95L165.49 3.95Q165.19 3.93 165.19 3.70L165.19 3.70L165.19 3.70Q165.19 3.46 165.59 3.46L165.59 3.46L165.59 3.46Q165.73 3.46 166.23 3.50L166.23 3.50L166.23 3.50Q166.73 3.54 167.17 3.54L167.17 3.54L167.17 3.54Q167.44 3.54 167.64 3.54L167.64 3.54L167.64 3.54Q167.83 3.53 168.31 3.53L168.31 3.53L168.31 3.53Q168.70 3.53 168.70 3.71L168.70 3.71L168.70 3.71Q168.70 3.84 168.06 4.10L168.06 4.10L168.06 4.10Q167.76 4.21 167.76 5.05L167.76 5.05L167.76 5.70L167.76 5.70Q167.76 8.02 167.75 9.50L167.75 9.50L167.75 9.50Q167.75 10.98 167.75 11.40L167.75 11.40L167.75 11.40Q167.75 11.82 167.74 12.07L167.74 12.07L167.74 12.07Q167.73 12.32 167.73 12.47L167.73 12.47L167.73 12.47Q167.73 14.07 166.87 15.10L166.87 15.10L166.87 15.10Q166.01 16.13 164.84 16.13L164.84 16.13L164.84 16.13Q164.28 16.13 164.28 15.60ZM176.25 3.68L176.25 3.68L176.25 3.68Q176.25 3.61 176.26 3.58L176.26 3.58L176.26 3.58Q176.27 3.56 176.34 3.53L176.34 3.53L176.34 3.53Q176.41 3.50 176.57 3.50L176.57 3.50L176.57 3.50Q176.72 3.50 177.21 3.53L177.21 3.53L177.21 3.53Q177.70 3.56 178.15 3.56L178.15 3.56L178.15 3.56Q178.43 3.56 178.66 3.54L178.66 3.54L178.66 3.54Q178.89 3.53 179.47 3.53L179.47 3.53L179.47 3.53Q179.76 3.53 179.76 3.72L179.76 3.72L179.76 3.72Q179.76 3.85 179.66 3.88L179.66 3.88L179.66 3.88Q179.56 3.91 179.42 3.92L179.42 3.92L179.42 3.92Q179.27 3.93 179.12 4.02L179.12 4.02L179.12 4.02Q178.98 4.10 178.88 4.43L178.88 4.43L178.88 4.43Q178.78 4.76 178.78 5.32L178.78 5.32L178.78 5.71L178.78 5.71Q178.78 6.37 178.77 7.37L178.77 7.37L178.77 7.37Q178.77 8.37 178.77 8.74L178.77 8.74L178.77 8.74Q178.77 9.17 178.77 9.39L178.77 9.39L178.77 9.39Q178.78 9.62 178.81 10.04L178.81 10.04L178.81 10.04Q178.84 10.47 178.88 10.72L178.88 10.72L178.88 10.72Q178.93 10.96 179.05 11.32L179.05 11.32L179.05 11.32Q179.16 11.68 179.32 11.89L179.32 11.89L179.32 11.89Q179.48 12.10 179.72 12.35L179.72 12.35L179.72 12.35Q179.97 12.60 180.29 12.73L180.29 12.73L180.29 12.73Q180.61 12.87 181.05 12.96L181.05 12.96L181.05 12.96Q181.48 13.05 182.01 13.05L182.01 13.05L182.01 13.05Q182.46 13.05 182.71 13.03L182.71 13.03L182.71 13.03Q182.97 13.02 183.41 12.94L183.41 12.94L183.41 12.94Q183.85 12.87 184.11 12.72L184.11 12.72L184.11 12.72Q184.37 12.57 184.69 12.27L184.69 12.27L184.69 12.27Q185.02 11.97 185.21 11.54L185.21 11.54L185.21 11.54Q185.39 11.10 185.51 10.43L185.51 10.43L185.51 10.43Q185.64 9.76 185.64 8.90L185.64 8.90L185.64 8.90Q185.64 7.49 185.63 6.75L185.63 6.75L185.63 6.75Q185.63 6.01 185.63 5.94L185.63 5.94L185.63 5.94Q185.63 5.45 185.60 5.17L185.60 5.17L185.60 5.17Q185.58 4.89 185.46 4.55L185.46 4.55L185.46 4.55Q185.35 4.21 185.12 4.06L185.12 4.06L185.12 4.06Q184.98 3.96 184.76 3.93L184.76 3.93L184.76 3.93Q184.53 3.89 184.39 3.87L184.39 3.87L184.39 3.87Q184.25 3.85 184.25 3.75L184.25 3.75L184.25 3.75Q184.25 3.53 184.53 3.53L184.53 3.53L184.53 3.53Q184.62 3.53 185.08 3.54L185.08 3.54L185.08 3.54Q185.54 3.56 185.61 3.56L185.61 3.56L185.61 3.56Q185.95 3.56 186.33 3.54L186.33 3.54L186.33 3.54Q186.70 3.51 186.80 3.51L186.80 3.51L186.80 3.51Q187.10 3.51 187.10 3.70L187.10 3.70L187.10 3.70Q187.10 3.81 186.79 3.98L186.79 3.98L186.79 3.98Q186.49 4.16 186.42 4.30L186.42 4.30L186.42 4.30Q186.27 4.59 186.27 5.22L186.27 5.22L186.27 5.22Q186.27 5.32 186.28 5.62L186.28 5.62L186.28 5.62Q186.28 5.92 186.28 6.16L186.28 6.16L186.28 6.16Q186.28 8.85 186.06 10.28L186.06 10.28L186.06 10.28Q185.84 11.70 185.38 12.36L185.38 12.36L185.38 12.36Q184.93 13.01 184.02 13.40L184.02 13.40L184.02 13.40Q183.27 13.71 182.01 13.71L182.01 13.71L182.01 13.71Q179.68 13.71 178.70 12.81L178.70 12.81L178.70 12.81Q177.93 12.10 177.74 11.09L177.74 11.09L177.74 11.09Q177.56 10.09 177.56 7.64L177.56 7.64L177.56 7.41L177.56 7.41Q177.56 6.86 177.58 6.20L177.58 6.20L177.58 6.20Q177.59 5.54 177.59 5.39L177.59 5.39L177.59 5.39Q177.59 4.62 177.41 4.33L177.41 4.33L177.41 4.33Q177.23 4.05 176.55 3.95L176.55 3.95L176.55 3.95Q176.25 3.91 176.25 3.68ZM195.20 10.82L195.20 10.82L195.20 10.82Q195.20 10.53 195.40 10.53L195.40 10.53L195.40 10.53Q195.58 10.53 195.62 10.67L195.62 10.67L195.62 10.67Q195.76 11.00 195.88 11.25L195.88 11.25L195.88 11.25Q196.00 11.49 196.27 11.85L196.27 11.85L196.27 11.85Q196.53 12.21 196.84 12.44L196.84 12.44L196.84 12.44Q197.15 12.67 197.63 12.84L197.63 12.84L197.63 12.84Q198.11 13.01 198.69 13.01L198.69 13.01L198.69 13.01Q199.74 13.01 200.37 12.45L200.37 12.45L200.37 12.45Q201.01 11.90 201.01 11.00L201.01 11.00L201.01 11.00Q201.01 10.35 200.58 9.90L200.58 9.90L200.58 9.90Q200.14 9.46 199.58 9.27L199.58 9.27L199.58 9.27Q199.02 9.09 198.16 8.77L198.16 8.77L198.16 8.77Q197.30 8.46 196.76 8.13L196.76 8.13L196.76 8.13Q195.48 7.38 195.48 6.08L195.48 6.08L195.48 6.08Q195.48 4.83 196.38 4.08L196.38 4.08L196.38 4.08Q197.29 3.33 198.73 3.33L198.73 3.33L198.73 3.33Q199.26 3.33 200.00 3.56L200.00 3.56L200.00 3.56Q200.73 3.79 200.75 3.79L200.75 3.79L200.75 3.79Q200.79 3.79 200.90 3.74L200.90 3.74L200.90 3.74Q201.01 3.68 201.07 3.68L201.07 3.68L201.07 3.68Q201.25 3.68 201.28 3.79L201.28 3.79L201.28 3.79Q201.57 5.49 201.57 5.70L201.57 5.70L201.57 5.70Q201.57 6.09 201.38 6.09L201.38 6.09L201.38 6.09Q201.25 6.09 201.18 5.89L201.18 5.89L201.18 5.89Q201.01 5.49 200.85 5.24L200.85 5.24L200.85 5.24Q200.69 4.98 200.62 4.91L200.62 4.91L200.62 4.91Q200.55 4.84 200.26 4.58L200.26 4.58L200.26 4.58Q199.50 3.91 198.42 3.91L198.42 3.91L198.42 3.91Q197.55 3.91 196.97 4.33L196.97 4.33L196.97 4.33Q196.38 4.75 196.38 5.46L196.38 5.46L196.38 5.46Q196.38 6.09 196.72 6.50L196.72 6.50L196.72 6.50Q197.06 6.90 197.64 7.13L197.64 7.13L197.64 7.13Q198.21 7.35 198.84 7.55L198.84 7.55L198.84 7.55Q199.47 7.74 200.18 8.09L200.18 8.09L200.18 8.09Q200.89 8.44 201.35 8.93L201.35 8.93L201.35 8.93Q201.91 9.53 201.91 10.43L201.91 10.43L201.91 10.43Q201.91 11.90 200.97 12.76L200.97 12.76L200.97 12.76Q200.03 13.62 198.65 13.62L198.65 13.62L198.65 13.62Q197.68 13.62 197.09 13.52L197.09 13.52L197.09 13.52Q196.50 13.41 195.89 13.09L195.89 13.09L195.89 13.09Q195.71 12.98 195.45 12.00L195.45 12.00L195.45 12.00Q195.20 11.02 195.20 10.82ZM210.00 5.32L210.00 5.32L210.00 5.32Q210.00 4.76 210.14 3.88L210.14 3.88L210.14 3.88Q210.14 3.85 210.15 3.78L210.15 3.78L210.15 3.78Q210.15 3.71 210.16 3.69L210.16 3.69L210.16 3.69Q210.17 3.67 210.17 3.62L210.17 3.62L210.17 3.62Q210.18 3.57 210.20 3.55L210.20 3.55L210.20 3.55Q210.21 3.53 210.23 3.49L210.23 3.49L210.23 3.49Q210.25 3.46 210.28 3.44L210.28 3.44L210.28 3.44Q210.31 3.43 210.35 3.42L210.35 3.42L210.35 3.42Q210.39 3.40 210.45 3.39L210.45 3.39L210.45 3.39Q210.50 3.39 210.57 3.39L210.57 3.39L210.57 3.39Q210.80 3.39 211.76 3.44L211.76 3.44L211.76 3.44Q212.72 3.50 214.52 3.50L214.52 3.50L214.52 3.50Q217.60 3.50 218.83 3.43L218.83 3.43L218.83 3.43Q218.85 3.43 218.88 3.42L218.88 3.42L218.88 3.42Q218.92 3.42 218.93 3.42L218.93 3.42L218.93 3.42Q219.09 3.42 219.14 3.50L219.14 3.50L219.14 3.50Q219.20 3.58 219.20 3.65L219.20 3.65L219.20 3.65Q219.20 3.75 219.24 4.24L219.24 4.24L219.24 4.24Q219.28 4.73 219.28 4.79L219.28 4.79L219.28 4.79Q219.28 5.14 219.24 5.23L219.24 5.23L219.24 5.23Q219.20 5.32 219.06 5.32L219.06 5.32L219.06 5.32Q218.95 5.32 218.90 5.15L218.90 5.15L218.90 5.15Q218.79 4.75 218.71 4.60L218.71 4.60L218.71 4.60Q218.62 4.45 218.34 4.34L218.34 4.34L218.34 4.34Q218.06 4.23 217.49 4.23L217.49 4.23L215.67 4.23L215.67 4.23Q215.33 4.23 215.26 4.36L215.26 4.36L215.26 4.36Q215.18 4.49 215.18 5.12L215.18 5.12L215.18 5.81L215.18 5.81Q215.18 7.69 215.16 9.11L215.16 9.11L215.16 9.11Q215.14 10.54 215.14 10.93L215.14 10.93L215.14 10.93Q215.14 11.13 215.13 11.43L215.13 11.43L215.13 11.43Q215.12 11.73 215.12 11.84L215.12 11.84L215.12 11.84Q215.12 12.45 215.32 12.64L215.32 12.64L215.32 12.64Q215.50 12.81 215.73 12.90L215.73 12.90L215.73 12.90Q215.95 12.99 216.11 13.01L216.11 13.01L216.11 13.01Q216.27 13.02 216.38 13.08L216.38 13.08L216.38 13.08Q216.50 13.13 216.50 13.26L216.50 13.26L216.50 13.26Q216.50 13.41 216.43 13.45L216.43 13.45L216.43 13.45Q216.36 13.50 216.16 13.50L216.16 13.50L216.16 13.50Q215.99 13.50 215.42 13.44L215.42 13.44L215.42 13.44Q214.84 13.38 214.61 13.38L214.61 13.38L214.61 13.38Q214.44 13.38 213.93 13.43L213.93 13.43L213.93 13.43Q213.42 13.48 213.18 13.48L213.18 13.48L213.18 13.48Q212.66 13.48 212.66 13.26L212.66 13.26L212.66 13.26Q212.66 13.12 212.74 13.07L212.74 13.07L212.74 13.07Q212.83 13.02 213.07 12.98L213.07 12.98L213.07 12.98Q213.32 12.95 213.39 12.94L213.39 12.94L213.39 12.94Q213.86 12.82 213.92 12.38L213.92 12.38L213.92 12.38Q214.06 11.14 214.06 7.08L214.06 7.08L214.05 4.58L214.05 4.58Q214.05 4.31 213.89 4.25L213.89 4.25L213.89 4.25Q213.74 4.19 212.98 4.19L212.98 4.19L212.98 4.19Q212.00 4.19 211.50 4.24L211.50 4.24L211.50 4.24Q211.01 4.30 210.92 4.35L210.92 4.35L210.92 4.35Q210.84 4.40 210.73 4.54L210.73 4.54L210.73 4.54Q210.60 4.70 210.52 4.91L210.52 4.91L210.52 4.91Q210.45 5.11 210.43 5.24L210.43 5.24L210.43 5.24Q210.41 5.38 210.34 5.47L210.34 5.47L210.34 5.47Q210.28 5.56 210.15 5.56L210.15 5.56L210.15 5.56Q210.00 5.56 210.00 5.32ZM226.84 3.71L226.84 3.71L226.84 3.71Q226.84 3.50 227.23 3.50L227.23 3.50L227.23 3.50Q227.37 3.50 227.88 3.53L227.88 3.53L227.88 3.53Q228.38 3.56 228.82 3.56L228.82 3.56L228.82 3.56Q229.08 3.56 229.33 3.54L229.33 3.54L229.33 3.54Q229.57 3.53 230.05 3.53L230.05 3.53L230.05 3.53Q230.43 3.53 230.43 3.72L230.43 3.72L230.43 3.72Q230.43 3.84 229.78 4.10L229.78 4.10L229.78 4.10Q229.33 4.28 229.33 5.71L229.33 5.71L229.33 5.71Q229.33 7.60 229.31 9.05L229.31 9.05L229.31 9.05Q229.29 10.50 229.29 10.89L229.29 10.89L229.29 10.89Q229.29 12.07 229.64 12.59L229.64 12.59L229.64 12.59Q229.95 13.02 230.31 13.02L230.31 13.02L230.31 13.02Q230.34 13.02 230.45 13.03L230.45 13.03L230.45 13.03Q230.57 13.03 230.59 13.03L230.59 13.03L230.59 13.03Q230.69 13.03 230.79 13.08L230.79 13.08L230.79 13.08Q230.89 13.13 230.89 13.19L230.89 13.19L230.89 13.19Q230.89 13.34 230.81 13.39L230.81 13.39L230.81 13.39Q230.73 13.44 230.54 13.44L230.54 13.44L230.54 13.44Q230.12 13.44 229.76 13.41L229.76 13.41L229.76 13.41Q229.40 13.38 229.21 13.38L229.21 13.38L229.21 13.38Q228.82 13.38 228.35 13.42L228.35 13.42L228.35 13.42Q227.89 13.45 227.67 13.45L227.67 13.45L227.67 13.45Q227.04 13.45 227.04 13.24L227.04 13.24L227.04 13.24Q227.04 13.12 227.17 13.07L227.17 13.07L227.17 13.07Q227.30 13.02 227.47 13.00L227.47 13.00L227.47 13.00Q227.64 12.98 227.82 12.82L227.82 12.82L227.82 12.82Q228.00 12.66 228.07 12.35L228.07 12.35L228.07 12.35Q228.10 12.25 228.16 10.76L228.16 10.76L228.16 10.76Q228.23 9.27 228.23 8.61L228.23 8.61L228.23 7.81L228.23 7.81Q228.23 7.63 228.23 7.12L228.23 7.12L228.23 7.12Q228.24 6.61 228.24 6.30L228.24 6.30L228.24 5.66L228.24 5.66Q228.24 5.04 228.19 4.63L228.19 4.63L228.19 4.63Q228.14 4.30 227.81 4.12L227.81 4.12L227.81 4.12Q227.49 3.93 227.14 3.92L227.14 3.92L227.14 3.92Q226.84 3.91 226.84 3.71ZM238.77 8.90L238.77 8.90L238.77 8.90Q238.77 7.38 239.36 6.16L239.36 6.16L239.36 6.16Q239.95 4.94 241.17 4.19L241.17 4.19L241.17 4.19Q242.40 3.44 244.08 3.44L244.08 3.44L244.08 3.44Q244.93 3.44 245.80 3.70L245.80 3.70L245.80 3.70Q246.67 3.95 247.18 4.20L247.18 4.20L247.70 4.47L247.70 4.47Q247.74 4.47 247.84 4.40L247.84 4.40L247.84 4.40Q247.94 4.33 248.00 4.33L248.00 4.33L248.00 4.33Q248.07 4.33 248.14 4.38L248.14 4.38L248.14 4.38Q248.21 4.44 248.21 4.55L248.21 4.55L248.21 4.55Q248.22 4.96 248.27 5.41L248.27 5.41L248.27 5.41Q248.32 5.87 248.36 6.16L248.36 6.16L248.36 6.16Q248.40 6.45 248.40 6.51L248.40 6.51L248.40 6.51Q248.40 6.76 248.23 6.76L248.23 6.76L248.23 6.76Q248.11 6.76 248.00 6.57L248.00 6.57L248.00 6.57Q246.64 4.02 244.08 4.02L244.08 4.02L244.08 4.02Q242.33 4.02 241.21 5.14L241.21 5.14L241.21 5.14Q240.09 6.26 240.09 8.06L240.09 8.06L240.09 8.06Q240.09 9.06 240.34 9.93L240.34 9.93L240.34 9.93Q240.60 10.79 241.13 11.51L241.13 11.51L241.13 11.51Q241.65 12.24 242.58 12.66L242.58 12.66L242.58 12.66Q243.50 13.08 244.73 13.08L244.73 13.08L244.73 13.08Q246.75 13.08 248.12 10.98L248.12 10.98L248.12 10.98Q248.18 10.88 248.33 10.88L248.33 10.88L248.33 10.88Q248.46 10.88 248.46 11.07L248.46 11.07L248.46 11.07Q248.46 11.23 248.41 11.49L248.41 11.49L248.41 11.49Q248.36 11.75 248.29 12.06L248.29 12.06L248.29 12.06Q248.22 12.38 248.21 12.45L248.21 12.45L248.21 12.45Q248.18 12.60 247.98 12.70L247.98 12.70L247.98 12.70Q247.23 13.06 246.80 13.24L246.80 13.24L246.80 13.24Q246.37 13.43 245.71 13.57L245.71 13.57L245.71 13.57Q245.06 13.72 244.37 13.72L244.37 13.72L244.37 13.72Q243.15 13.72 242.17 13.43L242.17 13.43L242.17 13.43Q241.19 13.13 240.57 12.66L240.57 12.66L240.57 12.66Q239.95 12.18 239.53 11.54L239.53 11.54L239.53 11.54Q239.11 10.91 238.94 10.25L238.94 10.25L238.94 10.25Q238.77 9.60 238.77 8.90ZM256.73 3.65L256.73 3.65L256.73 3.65Q256.73 3.46 257.12 3.46L257.12 3.46L257.12 3.46Q257.18 3.46 257.31 3.47L257.31 3.47L257.31 3.47Q257.43 3.49 257.50 3.49L257.50 3.49L257.50 3.49Q257.54 3.49 258.82 3.52L258.82 3.52L258.82 3.52Q260.09 3.56 260.92 3.56L260.92 3.56L260.92 3.56Q261.21 3.56 262.37 3.53L262.37 3.53L262.37 3.53Q263.52 3.50 263.72 3.50L263.72 3.50L263.72 3.50Q263.98 3.50 263.98 3.82L263.98 3.82L263.98 3.82Q263.98 3.91 263.90 4.38L263.90 4.38L263.90 4.38Q263.82 4.84 263.82 5.25L263.82 5.25L263.82 5.25Q263.82 5.38 263.75 5.47L263.75 5.47L263.75 5.47Q263.68 5.56 263.59 5.56L263.59 5.56L263.59 5.56Q263.38 5.56 263.38 5.26L263.38 5.26L263.38 5.26Q263.38 4.89 263.14 4.58L263.14 4.58L263.14 4.58Q262.91 4.27 262.56 4.26L262.56 4.26L262.56 4.26Q261.30 4.16 260.62 4.16L260.62 4.16L260.26 4.16L260.26 4.16Q259.53 4.16 259.41 4.26L259.41 4.26L259.41 4.26Q259.29 4.37 259.27 5.01L259.27 5.01L259.27 5.01Q259.21 6.02 259.21 7.35L259.21 7.35L259.21 7.35Q259.21 8.05 259.48 8.06L259.48 8.06L259.83 8.06L260.41 8.06L260.85 8.06L260.85 8.06Q261.69 8.06 261.97 8.01L261.97 8.01L261.97 8.01Q262.25 7.95 262.47 7.80L262.47 7.80L262.47 7.80Q262.74 7.62 262.79 7.28L262.79 7.28L262.79 7.28Q262.84 7.04 262.99 7.04L262.99 7.04L262.99 7.04Q263.12 7.04 263.14 7.08L263.14 7.08L263.14 7.08Q263.17 7.13 263.17 7.27L263.17 7.27L263.17 7.27Q263.17 7.36 263.12 7.91L263.12 7.91L263.12 7.91Q263.06 8.46 263.06 8.74L263.06 8.74L263.06 8.74Q263.06 9.00 263.08 9.24L263.08 9.24L263.08 9.24Q263.10 9.48 263.10 9.59L263.10 9.59L263.10 9.59Q263.10 9.94 263.00 9.94L263.00 9.94L263.00 9.94Q262.79 9.94 262.70 9.60L262.70 9.60L262.70 9.60Q262.50 9.02 262.35 8.92L262.35 8.92L262.35 8.92Q262.05 8.72 261.00 8.72L261.00 8.72L261.00 8.72Q260.58 8.72 260.32 8.72L260.32 8.72L260.32 8.72Q260.06 8.72 259.99 8.71L259.99 8.71L259.99 8.71Q259.91 8.71 259.86 8.71L259.86 8.71L259.86 8.71Q259.81 8.71 259.77 8.71L259.77 8.71L259.77 8.71Q259.20 8.71 259.20 8.97L259.20 8.97L259.20 8.97Q259.20 9.38 259.18 9.99L259.18 9.99L259.18 9.99Q259.17 10.60 259.17 10.99L259.17 10.99L259.17 11.55L259.17 11.55Q259.17 12.56 259.50 12.66L259.50 12.66L259.50 12.66Q259.85 12.77 260.11 12.77L260.11 12.77L260.11 12.77Q261.16 12.77 261.95 12.67L261.95 12.67L261.95 12.67Q262.74 12.57 263.14 12.42L263.14 12.42L263.14 12.42Q263.54 12.28 263.80 12.10L263.80 12.10L263.80 12.10Q264.07 11.93 264.14 11.78L264.14 11.78L264.14 11.78Q264.22 11.63 264.30 11.54L264.30 11.54L264.30 11.54Q264.38 11.44 264.46 11.44L264.46 11.44L264.46 11.44Q264.63 11.44 264.63 11.68L264.63 11.68L264.63 11.68Q264.63 12.28 264.03 12.89L264.03 12.89L264.03 12.89Q263.42 13.51 262.98 13.51L262.98 13.51L262.98 13.51Q261.97 13.51 260.70 13.44L260.70 13.44L260.70 13.44Q259.43 13.37 259.13 13.37L259.13 13.37L259.13 13.37Q258.73 13.37 258.15 13.43L258.15 13.43L258.15 13.43Q257.56 13.50 257.22 13.50L257.22 13.50L257.22 13.50Q256.93 13.50 256.93 13.36L256.93 13.36L256.93 13.36Q256.93 13.23 256.93 13.19L256.93 13.19L256.93 13.19Q256.93 13.15 256.97 13.12L256.97 13.12L256.97 13.12Q257.01 13.09 257.06 13.08L257.06 13.08L257.06 13.08Q257.11 13.08 257.24 13.03L257.24 13.03L257.24 13.03Q257.38 12.99 257.53 12.92L257.53 12.92L257.53 12.92Q257.87 12.75 257.97 12.26L257.97 12.26L257.97 12.26Q258.08 11.77 258.08 10.21L258.08 10.21L258.08 8.47L258.08 8.47Q258.08 8.09 258.10 7.29L258.10 7.29L258.10 7.29Q258.12 6.50 258.12 6.05L258.12 6.05L258.12 6.05Q258.12 5.67 258.09 4.77L258.09 4.77L258.09 4.77Q258.08 4.37 257.74 4.14L257.74 4.14L257.74 4.14Q257.40 3.92 256.96 3.91L256.96 3.91L256.96 3.91Q256.73 3.91 256.73 3.65Z"></path></g></svg>